# xmcd CD database file
#
# Track frame offsets:
#	150
#	18998
#	35901
#	52834
#	69306
#	78593
#	95549
#	113556
#	127726
#	142125
#
# Disc length: 2181 seconds
#
# Revision: 0
# Processed by: cddbd v1.5.2PL0 Copyright (c) Steve Scherf et al.
# Submitted via: CDex 1.70beta2
#
DISCID=7f08830a
DTITLE=Bob Mould - Life And Times
DYEAR=2009
DGENRE=Rock and Mehr
TTITLE0=Life And Times
TTITLE1=The Breach
TTITLE2=City Lights (Days Go By)
TTITLE3=MM 17 
TTITLE4=Argos
TTITLE5=Bad Blood Better
TTITLE6=Wasted World
TTITLE7=Spiraling Down
TTITLE8=I'm Sorry Baby, But You Can't Stand In My Light Anymore
TTITLE9=Lifetime
EXTD=YEAR: 2009
EXTT0=
EXTT1=
EXTT2=
EXTT3=
EXTT4=
EXTT5=
EXTT6=
EXTT7=
EXTT8=
EXTT9=
PLAYORDER=
